<svg width="1000" height="427" viewBox="0 0 1000 427" fill="none" xmlns="http://www.w3.org/2000/svg">
<path d="M639.919 154V274C759.707 189.707 874.552 158.878 917 154H639.919Z" fill="#1C1C1C"/>
<path d="M917 274V154C813.356 189.556 751.937 248.815 734.184 274H917Z" fill="#1C1C1C"/>
<path d="M83 242.2V158.286H100.282V243.457C100.282 250.529 103.267 254.143 109.08 254.143C114.893 254.143 117.878 250.529 117.878 243.457V158.286H134.531V242.2C134.531 259.957 125.576 269.857 108.766 269.857C91.9551 269.857 83 259.957 83 242.2Z" fill="#1C1C1C"/>
<path d="M169.306 269.857C152.496 269.857 143.855 259.957 143.855 242.2V235.914H160.194V243.457C160.194 250.529 163.179 254.143 169.149 254.143C175.276 254.143 178.261 250.529 178.261 243.143C178.261 238.586 177.162 234.657 174.962 231.2C172.92 227.743 168.992 223.5 163.179 218.471C156.109 212.186 151.082 206.529 148.097 201.343C145.269 196.157 143.855 190.5 143.855 184.057C143.855 166.614 152.81 156.714 169.62 156.714C186.117 156.714 194.758 166.614 194.758 184.371V188.929H178.418V183.271C178.418 176.043 175.591 172.429 169.778 172.429C163.965 172.429 160.98 175.886 160.98 182.957C160.98 186.886 162.079 190.657 164.279 193.957C166.478 197.257 170.406 201.5 176.219 206.529C183.446 212.814 188.473 218.629 191.144 223.814C193.972 229 195.386 234.971 195.386 241.886C195.386 259.957 186.274 269.857 169.306 269.857Z" fill="#1C1C1C"/>
<path d="M256.697 268.286H230.303V158.286H256.697C273.822 158.286 282.463 167.4 282.463 185.471V241.1C282.463 259.171 273.822 268.286 256.697 268.286ZM247.585 174V252.571H256.383C262.196 252.571 265.181 248.957 265.181 241.886V184.686C265.181 177.614 262.196 174 256.383 174H247.585Z" fill="#1C1C1C"/>
<path d="M348.338 268.286H331.056L328.071 246.757H308.118L305.133 268.286H289.108L307.019 158.286H330.428L348.338 268.286ZM318.016 176.357L310.318 231.829H325.872L318.016 176.357Z" fill="#1C1C1C"/>
<path d="M373.855 268.286H356.573V158.286H382.181C399.934 158.286 407.79 166.457 407.79 183.586V190.343C407.79 201.814 404.019 209.043 396.478 212.029V212.343C404.176 214.7 407.947 222.557 407.947 235.6V254.929C407.947 260.9 408.575 265.3 409.832 268.286H392.236C391.136 265.143 390.665 260.586 390.665 254.771V234.657C390.665 224.6 387.837 221.143 379.825 221.143H373.855V268.286ZM373.855 174V205.429H380.139C387.052 205.429 390.508 202.129 390.508 193.8V185.314C390.508 177.771 387.523 174 381.71 174H373.855Z" fill="#1C1C1C"/>
<path d="M490.818 268.286H445.099V158.286H462.381V252.571H490.818V268.286Z" fill="#1C1C1C"/>
<path d="M544.824 268.286H499.105V158.286H516.387V252.571H544.824V268.286Z" fill="#1C1C1C"/>
<path d="M551.24 242.829V183.743C551.24 166.614 560.196 156.714 576.692 156.714C593.188 156.714 602.143 166.614 602.143 183.743V195.371H585.804V182.643C585.804 175.886 582.976 172.429 577.163 172.429C571.35 172.429 568.522 175.886 568.522 182.643V244.086C568.522 250.843 571.35 254.143 577.163 254.143C582.976 254.143 585.804 250.843 585.804 244.086V228.057H602.143V242.829C602.143 259.957 593.188 269.857 576.692 269.857C560.196 269.857 551.24 259.957 551.24 242.829Z" fill="#1C1C1C"/>
</svg>
